<svg width="17" height="17" viewBox="0 0 17 17" fill="none" xmlns="http://www.w3.org/2000/svg">
<mask id="mask0_19_21600" style="mask-type:luminance" maskUnits="userSpaceOnUse" x="0" y="0" width="17" height="17">
<path d="M16.6719 0.172852H0.671875V16.1729H16.6719V0.172852Z" fill="white"/>
</mask>
<g mask="url(#mask0_19_21600)">
<path d="M6.00455 10.8398C6.00455 11.208 6.30303 11.5065 6.67122 11.5065C7.03941 11.5065 7.33789 11.208 7.33789 10.8398C7.33789 9.3009 7.67843 8.3449 8.26068 7.76264C8.84293 7.18038 9.79893 6.83984 11.3379 6.83984C11.706 6.83984 12.0045 6.54137 12.0045 6.17318C12.0045 5.80499 11.706 5.50651 11.3379 5.50651C9.79893 5.50651 8.84293 5.16597 8.26068 4.58372C7.67843 4.00146 7.33788 3.0455 7.33788 1.50651C7.33788 1.13832 7.03941 0.839844 6.67122 0.839844C6.30303 0.839844 6.00455 1.13832 6.00455 1.50651C6.00455 3.0455 5.66401 4.00146 5.08176 4.58372C4.49951 5.16597 3.54354 5.50651 2.00455 5.50651C1.63636 5.50651 1.33789 5.80499 1.33789 6.17318C1.33789 6.54137 1.63636 6.83984 2.00455 6.83984C3.54354 6.83984 4.49951 7.18038 5.08176 7.76264C5.66401 8.3449 6.00455 9.3009 6.00455 10.8398Z" fill="white"/>
<path d="M11.6719 14.8398C11.6719 15.208 11.9704 15.5065 12.3386 15.5065C12.7067 15.5065 13.0052 15.208 13.0052 14.8398C13.0052 13.8796 13.2184 13.3403 13.5287 13.03C13.839 12.7197 14.3783 12.5065 15.3386 12.5065C15.7067 12.5065 16.0052 12.208 16.0052 11.8398C16.0052 11.4717 15.7067 11.1732 15.3386 11.1732C14.3783 11.1732 13.839 10.96 13.5287 10.6497C13.2184 10.3394 13.0052 9.80012 13.0052 8.83982C13.0052 8.47172 12.7067 8.17322 12.3386 8.17322C11.9704 8.17322 11.6719 8.47172 11.6719 8.83982C11.6719 9.80012 11.4587 10.3394 11.1484 10.6497C10.8381 10.96 10.2988 11.1732 9.33858 11.1732C8.97038 11.1732 8.67188 11.4717 8.67188 11.8398C8.67188 12.208 8.97038 12.5065 9.33858 12.5065C10.2988 12.5065 10.8381 12.7197 11.1484 13.03C11.4587 13.3403 11.6719 13.8796 11.6719 14.8398Z" fill="white"/>
</g>
</svg>
