<svg width="590" height="870" viewBox="0 0 590 870" fill="none" xmlns="http://www.w3.org/2000/svg">
<g opacity="0.1">
<mask id="mask0_19_20695" style="mask-type:luminance" maskUnits="userSpaceOnUse" x="0" y="0" width="590" height="870">
<path opacity="0.1" d="M590 0H0V870H590V0Z" fill="white"/>
</mask>
<g mask="url(#mask0_19_20695)">
<g opacity="0.1">
<path opacity="0.1" d="M235.754 952.189L234.883 952.185L235.319 952.939L527.02 1458.06C566.48 1526.39 543.06 1613.77 474.714 1653.22C406.369 1692.67 318.971 1669.26 279.511 1600.92L-1.23029 1114.8L-1.66327 1114.05L-2.09625 1114.8L-285.585 1605.7C-325.046 1674.04 -412.443 1697.45 -480.792 1658C-549.14 1618.54 -572.558 1531.17 -533.097 1462.84L-237.426 950.841L-236.995 950.095L-237.857 950.091L-821.953 947.504C-900.873 947.155 -964.568 882.908 -964.219 804.006C-963.869 725.099 -899.607 661.428 -820.686 661.771L-262.28 664.246L-261.409 664.25L-261.845 663.496L-533.097 193.788C-572.558 125.451 -549.14 38.083 -480.792 -1.37701C-412.443 -40.827 -325.047 -17.416 -285.585 50.922L-2.09625 541.829L-1.66327 542.578L-1.23029 541.829L279.511 55.701C318.971 -12.637 406.369 -36.048 474.714 3.40202C543.06 42.862 566.48 130.23 527.02 198.567L257.202 665.8L256.771 666.546L257.633 666.55L804.51 668.977C883.43 669.32 947.12 733.569 946.78 812.471C946.43 891.374 882.16 955.054 803.24 954.704L235.754 952.189Z" stroke="url(#paint0_linear_19_20695)" stroke-opacity="0.2"/>
<path opacity="0.1" d="M235.754 952.189L234.883 952.185L235.319 952.939L527.02 1458.06C566.48 1526.39 543.06 1613.77 474.714 1653.22C406.369 1692.67 318.971 1669.26 279.511 1600.92L-1.23029 1114.8L-1.66327 1114.05L-2.09625 1114.8L-285.585 1605.7C-325.046 1674.04 -412.443 1697.45 -480.792 1658C-549.14 1618.54 -572.558 1531.17 -533.097 1462.84L-237.426 950.841L-236.995 950.095L-237.857 950.091L-821.953 947.504C-900.873 947.155 -964.568 882.908 -964.219 804.006C-963.869 725.099 -899.607 661.428 -820.686 661.771L-262.28 664.246L-261.409 664.25L-261.845 663.496L-533.097 193.788C-572.558 125.451 -549.14 38.083 -480.792 -1.37701C-412.443 -40.827 -325.047 -17.416 -285.585 50.922L-2.09625 541.829L-1.66327 542.578L-1.23029 541.829L279.511 55.701C318.971 -12.637 406.369 -36.048 474.714 3.40202C543.06 42.862 566.48 130.23 527.02 198.567L257.202 665.8L256.771 666.546L257.633 666.55L804.51 668.977C883.43 669.32 947.12 733.569 946.78 812.471C946.43 891.374 882.16 955.054 803.24 954.704L235.754 952.189Z" stroke="url(#paint1_radial_19_20695)" stroke-opacity="0.6"/>
</g>
</g>
</g>
<defs>
<linearGradient id="paint0_linear_19_20695" x1="-63.4862" y1="-578.307" x2="-74.0552" y2="1205.91" gradientUnits="userSpaceOnUse">
<stop stop-color="white"/>
<stop offset="1" stop-color="white" stop-opacity="0"/>
</linearGradient>
<radialGradient id="paint1_radial_19_20695" cx="0" cy="0" r="1" gradientUnits="userSpaceOnUse" gradientTransform="translate(550.47 1046.41) rotate(-32.8557) scale(658.806 585.311)">
<stop offset="0.105218" stop-color="white"/>
<stop offset="0.312923" stop-color="white" stop-opacity="0.0103403"/>
<stop offset="1" stop-color="white" stop-opacity="0"/>
</radialGradient>
</defs>
</svg>
