<svg width="1160" height="709" viewBox="0 0 1160 709" fill="none" xmlns="http://www.w3.org/2000/svg">
<g opacity="0.4">
<path opacity="0.4" d="M611.659 308.749C611.932 308.749 612.154 308.528 612.154 308.254C612.154 307.981 611.932 307.76 611.659 307.76C611.386 307.76 611.164 307.981 611.164 308.254C611.164 308.528 611.386 308.749 611.659 308.749Z" fill="white"/>
<path d="M891.708 228.593C891.981 228.593 892.202 228.372 892.202 228.098C892.202 227.825 891.981 227.604 891.708 227.604C891.434 227.604 891.213 227.825 891.213 228.098C891.213 228.372 891.434 228.593 891.708 228.593Z" fill="white"/>
<path d="M124.79 540.311C125.063 540.311 125.285 540.09 125.285 539.816C125.285 539.543 125.063 539.322 124.79 539.322C124.516 539.322 124.295 539.543 124.295 539.816C124.295 540.09 124.516 540.311 124.79 540.311Z" fill="white"/>
<path d="M700.719 318.645C700.993 318.645 701.214 318.424 701.214 318.15C701.214 317.877 700.993 317.656 700.719 317.656C700.446 317.656 700.225 317.877 700.225 318.15C700.225 318.424 700.446 318.645 700.719 318.645Z" fill="white"/>
<path d="M980.768 238.489C981.041 238.489 981.263 238.267 981.263 237.994C981.263 237.721 981.041 237.499 980.768 237.499C980.495 237.499 980.273 237.721 980.273 237.994C980.273 238.267 980.495 238.489 980.768 238.489Z" fill="white"/>
<path d="M213.852 550.207C214.125 550.207 214.347 549.986 214.347 549.712C214.347 549.439 214.125 549.218 213.852 549.218C213.579 549.218 213.357 549.439 213.357 549.712C213.357 549.986 213.579 550.207 213.852 550.207Z" fill="white"/>
<path d="M789.782 269.166C790.055 269.166 790.277 268.945 790.277 268.671C790.277 268.398 790.055 268.177 789.782 268.177C789.509 268.177 789.287 268.398 789.287 268.671C789.287 268.945 789.509 269.166 789.782 269.166Z" fill="white"/>
<path opacity="0.5" d="M1069.83 189.01C1070.1 189.01 1070.32 188.788 1070.32 188.515C1070.32 188.242 1070.1 188.02 1069.83 188.02C1069.56 188.02 1069.33 188.242 1069.33 188.515C1069.33 188.788 1069.56 189.01 1069.83 189.01Z" fill="white"/>
<path d="M302.913 500.728C303.186 500.728 303.408 500.506 303.408 500.233C303.408 499.96 303.186 499.738 302.913 499.738C302.639 499.738 302.418 499.96 302.418 500.233C302.418 500.506 302.639 500.728 302.913 500.728Z" fill="white"/>
<path d="M878.842 180.104C879.116 180.104 879.337 179.882 879.337 179.609C879.337 179.336 879.116 179.114 878.842 179.114C878.569 179.114 878.348 179.336 878.348 179.609C878.348 179.882 878.569 180.104 878.842 180.104Z" fill="white"/>
<path opacity="0.5" d="M1158.89 99.9477C1159.16 99.9477 1159.39 99.7262 1159.39 99.4529C1159.39 99.1797 1159.16 98.9581 1158.89 98.9581C1158.62 98.9581 1158.4 99.1797 1158.4 99.4529C1158.4 99.7262 1158.62 99.9477 1158.89 99.9477Z" fill="white"/>
<path opacity="0.4" d="M391.975 411.666C392.249 411.666 392.47 411.444 392.47 411.171C392.47 410.898 392.249 410.676 391.975 410.676C391.702 410.676 391.48 410.898 391.48 411.171C391.48 411.444 391.702 411.666 391.975 411.666Z" fill="white"/>
<path d="M849.155 110.833C849.428 110.833 849.65 110.612 849.65 110.338C849.65 110.065 849.428 109.844 849.155 109.844C848.882 109.844 848.66 110.065 848.66 110.338C848.66 110.612 848.882 110.833 849.155 110.833Z" fill="white"/>
<path opacity="0.4" d="M1129.2 30.677C1129.48 30.677 1129.7 30.4554 1129.7 30.1822C1129.7 29.9089 1129.48 29.6874 1129.2 29.6874C1128.93 29.6874 1128.71 29.9089 1128.71 30.1822C1128.71 30.4554 1128.93 30.677 1129.2 30.677Z" fill="white"/>
<path opacity="0.4" d="M760.094 81.1456C760.368 81.1456 760.589 80.9241 760.589 80.6508C760.589 80.3775 760.368 80.156 760.094 80.156C759.821 80.156 759.6 80.3775 759.6 80.6508C759.6 80.9241 759.821 81.1456 760.094 81.1456Z" fill="white"/>
<path d="M1040.14 0.989581C1040.42 0.989581 1040.64 0.768056 1040.64 0.49479C1040.64 0.221525 1040.42 0 1040.14 0C1039.87 0 1039.65 0.221525 1039.65 0.49479C1039.65 0.768056 1039.87 0.989581 1040.14 0.989581Z" fill="white"/>
<path d="M720.51 209.791C720.784 209.791 721.005 209.57 721.005 209.296C721.005 209.023 720.784 208.802 720.51 208.802C720.237 208.802 720.016 209.023 720.016 209.296C720.016 209.57 720.237 209.791 720.51 209.791Z" fill="white"/>
<path d="M1000.56 129.635C1000.83 129.635 1001.05 129.414 1001.05 129.14C1001.05 128.867 1000.83 128.646 1000.56 128.646C1000.29 128.646 1000.06 128.867 1000.06 129.14C1000.06 129.414 1000.29 129.635 1000.56 129.635Z" fill="white"/>
<path d="M779.885 338.437C780.159 338.437 780.38 338.215 780.38 337.942C780.38 337.669 780.159 337.447 779.885 337.447C779.612 337.447 779.391 337.669 779.391 337.942C779.391 338.215 779.612 338.437 779.885 338.437Z" fill="white"/>
<path d="M1059.93 258.281C1060.21 258.281 1060.43 258.059 1060.43 257.786C1060.43 257.513 1060.21 257.291 1059.93 257.291C1059.66 257.291 1059.44 257.513 1059.44 257.786C1059.44 258.059 1059.66 258.281 1059.93 258.281Z" fill="white"/>
<path d="M293.018 569.999C293.291 569.999 293.513 569.777 293.513 569.504C293.513 569.231 293.291 569.009 293.018 569.009C292.745 569.009 292.523 569.231 292.523 569.504C292.523 569.777 292.745 569.999 293.018 569.999Z" fill="white"/>
<path d="M928.321 279.062C928.594 279.062 928.816 278.84 928.816 278.567C928.816 278.294 928.594 278.072 928.321 278.072C928.048 278.072 927.826 278.294 927.826 278.567C927.826 278.84 928.048 279.062 928.321 279.062Z" fill="white"/>
<path d="M441.452 510.624C441.725 510.624 441.947 510.402 441.947 510.129C441.947 509.856 441.725 509.634 441.452 509.634C441.179 509.634 440.957 509.856 440.957 510.129C440.957 510.402 441.179 510.624 441.452 510.624Z" fill="white"/>
<path d="M948.112 269.166C948.385 269.166 948.607 268.945 948.607 268.671C948.607 268.398 948.385 268.177 948.112 268.177C947.839 268.177 947.617 268.398 947.617 268.671C947.617 268.945 947.839 269.166 948.112 269.166Z" fill="white"/>
<path d="M461.245 500.728C461.518 500.728 461.74 500.506 461.74 500.233C461.74 499.96 461.518 499.738 461.245 499.738C460.972 499.738 460.75 499.96 460.75 500.233C460.75 500.506 460.972 500.728 461.245 500.728Z" fill="white"/>
<path d="M958.008 180.104C958.282 180.104 958.503 179.882 958.503 179.609C958.503 179.336 958.282 179.114 958.008 179.114C957.735 179.114 957.514 179.336 957.514 179.609C957.514 179.882 957.735 180.104 958.008 180.104Z" fill="white"/>
<path d="M471.139 411.666C471.413 411.666 471.634 411.444 471.634 411.171C471.634 410.898 471.413 410.676 471.139 410.676C470.866 410.676 470.645 410.898 470.645 411.171C470.645 411.444 470.866 411.666 471.139 411.666Z" fill="white"/>
<path opacity="0.4" d="M937.227 140.52C937.5 140.52 937.722 140.299 937.722 140.026C937.722 139.752 937.5 139.531 937.227 139.531C936.954 139.531 936.732 139.752 936.732 140.026C936.732 140.299 936.954 140.52 937.227 140.52Z" fill="white"/>
<path d="M450.358 372.082C450.631 372.082 450.853 371.861 450.853 371.588C450.853 371.314 450.631 371.093 450.358 371.093C450.085 371.093 449.863 371.314 449.863 371.588C449.863 371.861 450.085 372.082 450.358 372.082Z" fill="white"/>
<path opacity="0.4" d="M817.489 190C817.762 190 817.984 189.778 817.984 189.505C817.984 189.232 817.762 189.01 817.489 189.01C817.216 189.01 816.994 189.232 816.994 189.505C816.994 189.778 817.216 190 817.489 190Z" fill="white"/>
<path d="M1097.54 109.843C1097.81 109.843 1098.03 109.622 1098.03 109.349C1098.03 109.075 1097.81 108.854 1097.54 108.854C1097.26 108.854 1097.04 109.075 1097.04 109.349C1097.04 109.622 1097.26 109.843 1097.54 109.843Z" fill="white"/>
<path opacity="0.5" d="M330.622 421.561C330.895 421.561 331.117 421.34 331.117 421.067C331.117 420.793 330.895 420.572 330.622 420.572C330.348 420.572 330.127 420.793 330.127 421.067C330.127 421.34 330.348 421.561 330.622 421.561Z" fill="white"/>
<path opacity="0.5" d="M697.751 259.27C698.024 259.27 698.245 259.049 698.245 258.775C698.245 258.502 698.024 258.281 697.751 258.281C697.477 258.281 697.256 258.502 697.256 258.775C697.256 259.049 697.477 259.27 697.751 259.27Z" fill="white"/>
<path d="M977.799 179.114C978.073 179.114 978.294 178.893 978.294 178.619C978.294 178.346 978.073 178.125 977.799 178.125C977.526 178.125 977.305 178.346 977.305 178.619C977.305 178.893 977.526 179.114 977.799 179.114Z" fill="white"/>
<path opacity="0.4" d="M210.883 490.832C211.157 490.832 211.378 490.611 211.378 490.337C211.378 490.064 211.157 489.843 210.883 489.843C210.61 489.843 210.389 490.064 210.389 490.337C210.389 490.611 210.61 490.832 210.883 490.832Z" fill="white"/>
<path d="M568.118 368.124C568.391 368.124 568.613 367.903 568.613 367.629C568.613 367.356 568.391 367.135 568.118 367.135C567.845 367.135 567.623 367.356 567.623 367.629C567.623 367.903 567.845 368.124 568.118 368.124Z" fill="white"/>
<path d="M848.167 287.968C848.44 287.968 848.661 287.747 848.661 287.473C848.661 287.2 848.44 286.979 848.167 286.979C847.893 286.979 847.672 287.2 847.672 287.473C847.672 287.747 847.893 287.968 848.167 287.968Z" fill="white"/>
<path d="M81.2487 599.686C81.522 599.686 81.7435 599.465 81.7435 599.191C81.7435 598.918 81.522 598.697 81.2487 598.697C80.9754 598.697 80.7539 598.918 80.7539 599.191C80.7539 599.465 80.9754 599.686 81.2487 599.686Z" fill="white"/>
<path d="M487.964 476.978C488.237 476.978 488.458 476.756 488.458 476.483C488.458 476.21 488.237 475.988 487.964 475.988C487.69 475.988 487.469 476.21 487.469 476.483C487.469 476.756 487.69 476.978 487.964 476.978Z" fill="white"/>
<path d="M768.01 396.822C768.284 396.822 768.505 396.6 768.505 396.327C768.505 396.054 768.284 395.832 768.01 395.832C767.737 395.832 767.516 396.054 767.516 396.327C767.516 396.6 767.737 396.822 768.01 396.822Z" fill="white"/>
<path d="M1.0944 708.54C1.36767 708.54 1.58919 708.318 1.58919 708.045C1.58919 707.772 1.36767 707.55 1.0944 707.55C0.821135 707.55 0.599609 707.772 0.599609 708.045C0.599609 708.318 0.821135 708.54 1.0944 708.54Z" fill="white"/>
</g>
</svg>
