<svg width="386" height="237" viewBox="0 0 386 237" fill="none" xmlns="http://www.w3.org/2000/svg">
<g opacity="0.4">
<path d="M98.5059 103.286C98.7216 103.286 98.8965 103.111 98.8965 102.895C98.8965 102.679 98.7216 102.504 98.5059 102.504C98.2901 102.504 98.1152 102.679 98.1152 102.895C98.1152 103.111 98.2901 103.286 98.5059 103.286Z" fill="white"/>
<path d="M168.822 111.098C169.038 111.098 169.213 110.924 169.213 110.708C169.213 110.492 169.038 110.317 168.822 110.317C168.607 110.317 168.432 110.492 168.432 110.708C168.432 110.924 168.607 111.098 168.822 111.098Z" fill="white"/>
<path d="M239.137 72.0343C239.352 72.0343 239.527 71.8594 239.527 71.6437C239.527 71.4279 239.352 71.2531 239.137 71.2531C238.921 71.2531 238.746 71.4279 238.746 71.6437C238.746 71.8594 238.921 72.0343 239.137 72.0343Z" fill="white"/>
<path opacity="0.4" d="M309.453 1.71902C309.669 1.71902 309.844 1.54413 309.844 1.32838C309.844 1.11264 309.669 0.937744 309.453 0.937744C309.237 0.937744 309.062 1.11264 309.062 1.32838C309.062 1.54413 309.237 1.71902 309.453 1.71902Z" fill="white"/>
<path d="M231.324 126.724C231.54 126.724 231.715 126.549 231.715 126.333C231.715 126.118 231.54 125.943 231.324 125.943C231.108 125.943 230.934 126.118 230.934 126.333C230.934 126.549 231.108 126.724 231.324 126.724Z" fill="white"/>
<path d="M348.518 79.8472C348.733 79.8472 348.908 79.6723 348.908 79.4566C348.908 79.2408 348.733 79.0659 348.518 79.0659C348.302 79.0659 348.127 79.2408 348.127 79.4566C348.127 79.6723 348.302 79.8472 348.518 79.8472Z" fill="white"/>
<path d="M364.143 72.0343C364.358 72.0343 364.533 71.8594 364.533 71.6437C364.533 71.4279 364.358 71.2531 364.143 71.2531C363.927 71.2531 363.752 71.4279 363.752 71.6437C363.752 71.8594 363.927 72.0343 364.143 72.0343Z" fill="white"/>
<path d="M371.955 1.71902C372.171 1.71902 372.346 1.54413 372.346 1.32838C372.346 1.11264 372.171 0.937744 371.955 0.937744C371.739 0.937744 371.564 1.11264 371.564 1.32838C371.564 1.54413 371.739 1.71902 371.955 1.71902Z" fill="white"/>
<path opacity="0.5" d="M261.014 9.53177C261.229 9.53177 261.404 9.35687 261.404 9.14113C261.404 8.92538 261.229 8.75049 261.014 8.75049C260.798 8.75049 260.623 8.92538 260.623 9.14113C260.623 9.35687 260.798 9.53177 261.014 9.53177Z" fill="white"/>
<path opacity="0.4" d="M166.479 64.2215C166.694 64.2215 166.869 64.0466 166.869 63.8308C166.869 63.6151 166.694 63.4402 166.479 63.4402C166.263 63.4402 166.088 63.6151 166.088 63.8308C166.088 64.0466 166.263 64.2215 166.479 64.2215Z" fill="white"/>
<path d="M64.1289 150.162C64.3447 150.162 64.5196 149.987 64.5196 149.772C64.5196 149.556 64.3447 149.381 64.1289 149.381C63.9132 149.381 63.7383 149.556 63.7383 149.772C63.7383 149.987 63.9132 150.162 64.1289 150.162Z" fill="white"/>
<path d="M385.238 53.2835C385.454 53.2835 385.629 53.1086 385.629 52.8928C385.629 52.6771 385.454 52.5022 385.238 52.5022C385.023 52.5022 384.848 52.6771 384.848 52.8928C384.848 53.1086 385.023 53.2835 385.238 53.2835Z" fill="white"/>
<path d="M0.84572 236.103C1.06147 236.103 1.23636 235.928 1.23636 235.713C1.23636 235.497 1.06147 235.322 0.84572 235.322C0.629975 235.322 0.455078 235.497 0.455078 235.713C0.455078 235.928 0.629975 236.103 0.84572 236.103Z" fill="white"/>
</g>
</svg>
