<svg width="1160" height="709" viewBox="0 0 1160 709" fill="none" xmlns="http://www.w3.org/2000/svg">
<g opacity="0.4">
<path opacity="0.4" d="M548.675 308.751C548.402 308.751 548.18 308.529 548.18 308.256C548.18 307.983 548.402 307.761 548.675 307.761C548.948 307.761 549.17 307.983 549.17 308.256C549.17 308.529 548.948 308.751 548.675 308.751Z" fill="white"/>
<path d="M268.622 228.594C268.349 228.594 268.128 228.373 268.128 228.099C268.128 227.826 268.349 227.605 268.622 227.605C268.896 227.605 269.117 227.826 269.117 228.099C269.117 228.373 268.896 228.594 268.622 228.594Z" fill="white"/>
<path d="M1035.55 540.313C1035.28 540.313 1035.06 540.092 1035.06 539.819C1035.06 539.545 1035.28 539.324 1035.55 539.324C1035.82 539.324 1036.04 539.545 1036.04 539.819C1036.04 540.092 1035.82 540.313 1035.55 540.313Z" fill="white"/>
<path d="M459.613 318.646C459.339 318.646 459.118 318.425 459.118 318.152C459.118 317.878 459.339 317.657 459.613 317.657C459.886 317.657 460.107 317.878 460.107 318.152C460.107 318.425 459.886 318.646 459.613 318.646Z" fill="white"/>
<path d="M179.56 238.49C179.287 238.49 179.065 238.268 179.065 237.995C179.065 237.722 179.287 237.5 179.56 237.5C179.833 237.5 180.055 237.722 180.055 237.995C180.055 238.268 179.833 238.49 179.56 238.49Z" fill="white"/>
<path d="M946.488 550.209C946.214 550.209 945.993 549.988 945.993 549.715C945.993 549.441 946.214 549.22 946.488 549.22C946.761 549.22 946.982 549.441 946.982 549.715C946.982 549.988 946.761 550.209 946.488 550.209Z" fill="white"/>
<path d="M370.55 269.167C370.277 269.167 370.055 268.946 370.055 268.672C370.055 268.399 370.277 268.178 370.55 268.178C370.823 268.178 371.045 268.399 371.045 268.672C371.045 268.946 370.823 269.167 370.55 269.167Z" fill="white"/>
<path opacity="0.5" d="M90.4993 189.011C90.2261 189.011 90.0046 188.789 90.0046 188.516C90.0046 188.243 90.2261 188.021 90.4993 188.021C90.7726 188.021 90.9941 188.243 90.9941 188.516C90.9941 188.789 90.7726 189.011 90.4993 189.011Z" fill="white"/>
<path d="M857.425 500.73C857.152 500.73 856.93 500.509 856.93 500.235C856.93 499.962 857.152 499.74 857.425 499.74C857.698 499.74 857.92 499.962 857.92 500.235C857.92 500.509 857.698 500.73 857.425 500.73Z" fill="white"/>
<path d="M281.488 180.104C281.214 180.104 280.993 179.883 280.993 179.61C280.993 179.336 281.214 179.115 281.488 179.115C281.761 179.115 281.982 179.336 281.982 179.61C281.982 179.883 281.761 180.104 281.488 180.104Z" fill="white"/>
<path opacity="0.5" d="M1.43685 99.9481C1.16358 99.9481 0.942057 99.7266 0.942057 99.4533C0.942057 99.18 1.16358 98.9585 1.43685 98.9585C1.71011 98.9585 1.93164 99.18 1.93164 99.4533C1.93164 99.7266 1.71011 99.9481 1.43685 99.9481Z" fill="white"/>
<path opacity="0.4" d="M768.363 411.667C768.089 411.667 767.868 411.446 767.868 411.173C767.868 410.899 768.089 410.678 768.363 410.678C768.636 410.678 768.857 410.899 768.857 411.173C768.857 411.446 768.636 411.667 768.363 411.667Z" fill="white"/>
<path d="M311.175 110.834C310.902 110.834 310.68 110.612 310.68 110.339C310.68 110.065 310.902 109.844 311.175 109.844C311.448 109.844 311.67 110.065 311.67 110.339C311.67 110.612 311.448 110.834 311.175 110.834Z" fill="white"/>
<path opacity="0.4" d="M31.1243 30.6771C30.8511 30.6771 30.6296 30.4556 30.6296 30.1824C30.6296 29.9091 30.8511 29.6876 31.1243 29.6876C31.3976 29.6876 31.6191 29.9091 31.6191 30.1824C31.6191 30.4556 31.3976 30.6771 31.1243 30.6771Z" fill="white"/>
<path opacity="0.4" d="M400.238 81.146C399.964 81.146 399.743 80.9244 399.743 80.6512C399.743 80.3779 399.964 80.1564 400.238 80.1564C400.511 80.1564 400.732 80.3779 400.732 80.6512C400.732 80.9244 400.511 81.146 400.238 81.146Z" fill="white"/>
<path d="M120.185 0.989585C119.912 0.989585 119.69 0.768059 119.69 0.494793C119.69 0.221526 119.912 0 120.185 0C120.458 0 120.68 0.221526 120.68 0.494793C120.68 0.768059 120.458 0.989585 120.185 0.989585Z" fill="white"/>
<path d="M439.822 209.792C439.548 209.792 439.327 209.57 439.327 209.297C439.327 209.024 439.548 208.802 439.822 208.802C440.095 208.802 440.316 209.024 440.316 209.297C440.316 209.57 440.095 209.792 439.822 209.792Z" fill="white"/>
<path d="M159.769 129.636C159.496 129.636 159.274 129.414 159.274 129.141C159.274 128.868 159.496 128.646 159.769 128.646C160.042 128.646 160.264 128.868 160.264 129.141C160.264 129.414 160.042 129.636 159.769 129.636Z" fill="white"/>
<path d="M380.447 338.438C380.173 338.438 379.952 338.217 379.952 337.943C379.952 337.67 380.173 337.448 380.447 337.448C380.72 337.448 380.941 337.67 380.941 337.943C380.941 338.217 380.72 338.438 380.447 338.438Z" fill="white"/>
<path d="M100.394 258.282C100.121 258.282 99.8991 258.06 99.8991 257.787C99.8991 257.514 100.121 257.292 100.394 257.292C100.667 257.292 100.889 257.514 100.889 257.787C100.889 258.06 100.667 258.282 100.394 258.282Z" fill="white"/>
<path d="M867.322 570.001C867.048 570.001 866.827 569.78 866.827 569.506C866.827 569.233 867.048 569.011 867.322 569.011C867.595 569.011 867.816 569.233 867.816 569.506C867.816 569.78 867.595 570.001 867.322 570.001Z" fill="white"/>
<path d="M232.009 279.063C231.736 279.063 231.514 278.841 231.514 278.568C231.514 278.295 231.736 278.073 232.009 278.073C232.282 278.073 232.504 278.295 232.504 278.568C232.504 278.841 232.282 279.063 232.009 279.063Z" fill="white"/>
<path d="M718.884 510.626C718.611 510.626 718.389 510.404 718.389 510.131C718.389 509.858 718.611 509.636 718.884 509.636C719.157 509.636 719.379 509.858 719.379 510.131C719.379 510.404 719.157 510.626 718.884 510.626Z" fill="white"/>
<path d="M212.216 269.167C211.943 269.167 211.721 268.946 211.721 268.672C211.721 268.399 211.943 268.178 212.216 268.178C212.489 268.178 212.711 268.399 212.711 268.672C212.711 268.946 212.489 269.167 212.216 269.167Z" fill="white"/>
<path d="M699.091 500.73C698.818 500.73 698.596 500.509 698.596 500.235C698.596 499.962 698.818 499.74 699.091 499.74C699.364 499.74 699.586 499.962 699.586 500.235C699.586 500.509 699.364 500.73 699.091 500.73Z" fill="white"/>
<path d="M202.322 180.104C202.048 180.104 201.827 179.883 201.827 179.61C201.827 179.336 202.048 179.115 202.322 179.115C202.595 179.115 202.816 179.336 202.816 179.61C202.816 179.883 202.595 180.104 202.322 180.104Z" fill="white"/>
<path d="M689.197 411.667C688.923 411.667 688.702 411.446 688.702 411.173C688.702 410.899 688.923 410.678 689.197 410.678C689.47 410.678 689.691 410.899 689.691 411.173C689.691 411.446 689.47 411.667 689.197 411.667Z" fill="white"/>
<path opacity="0.4" d="M223.103 140.521C222.83 140.521 222.608 140.3 222.608 140.026C222.608 139.753 222.83 139.531 223.103 139.531C223.376 139.531 223.598 139.753 223.598 140.026C223.598 140.3 223.376 140.521 223.103 140.521Z" fill="white"/>
<path d="M709.978 372.084C709.705 372.084 709.483 371.862 709.483 371.589C709.483 371.316 709.705 371.094 709.978 371.094C710.251 371.094 710.473 371.316 710.473 371.589C710.473 371.862 710.251 372.084 709.978 372.084Z" fill="white"/>
<path opacity="0.4" d="M342.841 190C342.568 190 342.346 189.779 342.346 189.506C342.346 189.232 342.568 189.011 342.841 189.011C343.114 189.011 343.336 189.232 343.336 189.506C343.336 189.779 343.114 190 342.841 190Z" fill="white"/>
<path d="M62.7904 109.844C62.5171 109.844 62.2956 109.622 62.2956 109.349C62.2956 109.076 62.5171 108.854 62.7904 108.854C63.0636 108.854 63.2852 109.076 63.2852 109.349C63.2852 109.622 63.0636 109.844 62.7904 109.844Z" fill="white"/>
<path opacity="0.5" d="M829.716 421.563C829.443 421.563 829.221 421.342 829.221 421.068C829.221 420.795 829.443 420.574 829.716 420.574C829.989 420.574 830.211 420.795 830.211 421.068C830.211 421.342 829.989 421.563 829.716 421.563Z" fill="white"/>
<path opacity="0.5" d="M462.581 259.271C462.308 259.271 462.087 259.05 462.087 258.777C462.087 258.503 462.308 258.282 462.581 258.282C462.855 258.282 463.076 258.503 463.076 258.777C463.076 259.05 462.855 259.271 462.581 259.271Z" fill="white"/>
<path d="M182.529 179.115C182.255 179.115 182.034 178.893 182.034 178.62C182.034 178.347 182.255 178.125 182.529 178.125C182.802 178.125 183.023 178.347 183.023 178.62C183.023 178.893 182.802 179.115 182.529 179.115Z" fill="white"/>
<path opacity="0.4" d="M949.456 490.834C949.183 490.834 948.962 490.613 948.962 490.339C948.962 490.066 949.183 489.845 949.456 489.845C949.73 489.845 949.951 490.066 949.951 490.339C949.951 490.613 949.73 490.834 949.456 490.834Z" fill="white"/>
<path d="M592.216 368.126C591.943 368.126 591.721 367.904 591.721 367.631C591.721 367.358 591.943 367.136 592.216 367.136C592.489 367.136 592.711 367.358 592.711 367.631C592.711 367.904 592.489 368.126 592.216 368.126Z" fill="white"/>
<path d="M312.165 287.969C311.892 287.969 311.671 287.748 311.671 287.474C311.671 287.201 311.892 286.98 312.165 286.98C312.439 286.98 312.66 287.201 312.66 287.474C312.66 287.748 312.439 287.969 312.165 287.969Z" fill="white"/>
<path d="M1079.09 599.689C1078.82 599.689 1078.6 599.467 1078.6 599.194C1078.6 598.921 1078.82 598.699 1079.09 598.699C1079.36 598.699 1079.59 598.921 1079.59 599.194C1079.59 599.467 1079.36 599.689 1079.09 599.689Z" fill="white"/>
<path d="M672.372 476.98C672.099 476.98 671.878 476.759 671.878 476.485C671.878 476.212 672.099 475.99 672.372 475.99C672.646 475.99 672.867 476.212 672.867 476.485C672.867 476.759 672.646 476.98 672.372 476.98Z" fill="white"/>
<path d="M392.322 396.824C392.048 396.824 391.827 396.602 391.827 396.329C391.827 396.056 392.048 395.834 392.322 395.834C392.595 395.834 392.816 396.056 392.816 396.329C392.816 396.602 392.595 396.824 392.322 396.824Z" fill="white"/>
<path d="M1159.25 708.543C1158.97 708.543 1158.75 708.321 1158.75 708.048C1158.75 707.775 1158.97 707.553 1159.25 707.553C1159.52 707.553 1159.74 707.775 1159.74 708.048C1159.74 708.321 1159.52 708.543 1159.25 708.543Z" fill="white"/>
</g>
</svg>
