<svg width="1229" height="709" viewBox="0 0 1229 709" fill="none" xmlns="http://www.w3.org/2000/svg">
<g opacity="0.4">
<path opacity="0.4" d="M611.999 308.918C612.272 308.918 612.493 308.696 612.493 308.423C612.493 308.15 612.272 307.928 611.999 307.928C611.725 307.928 611.504 308.15 611.504 308.423C611.504 308.696 611.725 308.918 611.999 308.918Z" fill="white"/>
<path d="M892.051 228.761C892.325 228.761 892.546 228.54 892.546 228.267C892.546 227.993 892.325 227.772 892.051 227.772C891.778 227.772 891.557 227.993 891.557 228.267C891.557 228.54 891.778 228.761 892.051 228.761Z" fill="white"/>
<path d="M125.124 540.481C125.397 540.481 125.618 540.259 125.618 539.986C125.618 539.712 125.397 539.491 125.124 539.491C124.85 539.491 124.629 539.712 124.629 539.986C124.629 540.259 124.85 540.481 125.124 540.481Z" fill="white"/>
<path d="M701.061 318.814C701.334 318.814 701.556 318.592 701.556 318.319C701.556 318.046 701.334 317.824 701.061 317.824C700.788 317.824 700.566 318.046 700.566 318.319C700.566 318.592 700.788 318.814 701.061 318.814Z" fill="white"/>
<path d="M981.114 238.657C981.387 238.657 981.609 238.436 981.609 238.162C981.609 237.889 981.387 237.667 981.114 237.667C980.841 237.667 980.619 237.889 980.619 238.162C980.619 238.436 980.841 238.657 981.114 238.657Z" fill="white"/>
<path d="M214.186 550.376C214.459 550.376 214.681 550.155 214.681 549.882C214.681 549.608 214.459 549.387 214.186 549.387C213.913 549.387 213.691 549.608 213.691 549.882C213.691 550.155 213.913 550.376 214.186 550.376Z" fill="white"/>
<path d="M790.124 269.334C790.397 269.334 790.618 269.113 790.618 268.839C790.618 268.566 790.397 268.345 790.124 268.345C789.85 268.345 789.629 268.566 789.629 268.839C789.629 269.113 789.85 269.334 790.124 269.334Z" fill="white"/>
<path opacity="0.5" d="M1070.18 189.178C1070.45 189.178 1070.67 188.956 1070.67 188.683C1070.67 188.41 1070.45 188.188 1070.18 188.188C1069.9 188.188 1069.68 188.41 1069.68 188.683C1069.68 188.956 1069.9 189.178 1070.18 189.178Z" fill="white"/>
<path d="M303.249 500.897C303.522 500.897 303.743 500.676 303.743 500.402C303.743 500.129 303.522 499.908 303.249 499.908C302.975 499.908 302.754 500.129 302.754 500.402C302.754 500.676 302.975 500.897 303.249 500.897Z" fill="white"/>
<path d="M879.186 180.272C879.459 180.272 879.681 180.05 879.681 179.777C879.681 179.504 879.459 179.282 879.186 179.282C878.913 179.282 878.691 179.504 878.691 179.777C878.691 180.05 878.913 180.272 879.186 180.272Z" fill="white"/>
<path opacity="0.5" d="M1159.24 100.115C1159.51 100.115 1159.73 99.8937 1159.73 99.6204C1159.73 99.3471 1159.51 99.1256 1159.24 99.1256C1158.97 99.1256 1158.74 99.3471 1158.74 99.6204C1158.74 99.8937 1158.97 100.115 1159.24 100.115Z" fill="white"/>
<path opacity="0.4" d="M392.311 411.834C392.584 411.834 392.806 411.613 392.806 411.34C392.806 411.066 392.584 410.845 392.311 410.845C392.038 410.845 391.816 411.066 391.816 411.34C391.816 411.613 392.038 411.834 392.311 411.834Z" fill="white"/>
<path d="M849.499 111.001C849.772 111.001 849.993 110.779 849.993 110.506C849.993 110.233 849.772 110.011 849.499 110.011C849.225 110.011 849.004 110.233 849.004 110.506C849.004 110.779 849.225 111.001 849.499 111.001Z" fill="white"/>
<path opacity="0.4" d="M1129.55 30.8443C1129.82 30.8443 1130.05 30.6227 1130.05 30.3495C1130.05 30.0762 1129.82 29.8547 1129.55 29.8547C1129.28 29.8547 1129.06 30.0762 1129.06 30.3495C1129.06 30.6227 1129.28 30.8443 1129.55 30.8443Z" fill="white"/>
<path opacity="0.4" d="M760.436 81.3131C760.709 81.3131 760.931 81.0915 760.931 80.8183C760.931 80.545 760.709 80.3235 760.436 80.3235C760.163 80.3235 759.941 80.545 759.941 80.8183C759.941 81.0915 760.163 81.3131 760.436 81.3131Z" fill="white"/>
<path d="M1040.49 1.1567C1040.76 1.1567 1040.98 0.935173 1040.98 0.661907C1040.98 0.38864 1040.76 0.167114 1040.49 0.167114C1040.22 0.167114 1039.99 0.38864 1039.99 0.661907C1039.99 0.935173 1040.22 1.1567 1040.49 1.1567Z" fill="white"/>
<path d="M720.854 209.959C721.127 209.959 721.349 209.738 721.349 209.464C721.349 209.191 721.127 208.969 720.854 208.969C720.581 208.969 720.359 209.191 720.359 209.464C720.359 209.738 720.581 209.959 720.854 209.959Z" fill="white"/>
<path d="M1000.9 129.803C1001.18 129.803 1001.4 129.581 1001.4 129.308C1001.4 129.035 1001.18 128.813 1000.9 128.813C1000.63 128.813 1000.41 129.035 1000.41 129.308C1000.41 129.581 1000.63 129.803 1000.9 129.803Z" fill="white"/>
<path d="M780.229 338.605C780.502 338.605 780.724 338.384 780.724 338.11C780.724 337.837 780.502 337.616 780.229 337.616C779.956 337.616 779.734 337.837 779.734 338.11C779.734 338.384 779.956 338.605 780.229 338.605Z" fill="white"/>
<path d="M1060.28 258.449C1060.55 258.449 1060.77 258.227 1060.77 257.954C1060.77 257.681 1060.55 257.459 1060.28 257.459C1060.01 257.459 1059.79 257.681 1059.79 257.954C1059.79 258.227 1060.01 258.449 1060.28 258.449Z" fill="white"/>
<path d="M293.354 570.168C293.627 570.168 293.849 569.947 293.849 569.673C293.849 569.4 293.627 569.178 293.354 569.178C293.081 569.178 292.859 569.4 292.859 569.673C292.859 569.947 293.081 570.168 293.354 570.168Z" fill="white"/>
<path d="M928.667 279.23C928.94 279.23 929.161 279.009 929.161 278.735C929.161 278.462 928.94 278.24 928.667 278.24C928.393 278.24 928.172 278.462 928.172 278.735C928.172 279.009 928.393 279.23 928.667 279.23Z" fill="white"/>
<path d="M1208.72 199.074C1208.99 199.074 1209.21 198.852 1209.21 198.579C1209.21 198.306 1208.99 198.084 1208.72 198.084C1208.44 198.084 1208.22 198.306 1208.22 198.579C1208.22 198.852 1208.44 199.074 1208.72 199.074Z" fill="white"/>
<path d="M441.792 510.793C442.065 510.793 442.286 510.572 442.286 510.298C442.286 510.025 442.065 509.803 441.792 509.803C441.518 509.803 441.297 510.025 441.297 510.298C441.297 510.572 441.518 510.793 441.792 510.793Z" fill="white"/>
<path d="M948.458 269.334C948.731 269.334 948.952 269.113 948.952 268.839C948.952 268.566 948.731 268.345 948.458 268.345C948.184 268.345 947.963 268.566 947.963 268.839C947.963 269.113 948.184 269.334 948.458 269.334Z" fill="white"/>
<path d="M1228.51 189.178C1228.78 189.178 1229.01 188.956 1229.01 188.683C1229.01 188.41 1228.78 188.188 1228.51 188.188C1228.24 188.188 1228.02 188.41 1228.02 188.683C1228.02 188.956 1228.24 189.178 1228.51 189.178Z" fill="white"/>
<path d="M461.583 500.897C461.856 500.897 462.077 500.676 462.077 500.402C462.077 500.129 461.856 499.908 461.583 499.908C461.309 499.908 461.088 500.129 461.088 500.402C461.088 500.676 461.309 500.897 461.583 500.897Z" fill="white"/>
<path d="M958.354 180.272C958.627 180.272 958.849 180.05 958.849 179.777C958.849 179.504 958.627 179.282 958.354 179.282C958.081 179.282 957.859 179.504 957.859 179.777C957.859 180.05 958.081 180.272 958.354 180.272Z" fill="white"/>
<path d="M471.479 411.834C471.752 411.834 471.974 411.613 471.974 411.34C471.974 411.066 471.752 410.845 471.479 410.845C471.206 410.845 470.984 411.066 470.984 411.34C470.984 411.613 471.206 411.834 471.479 411.834Z" fill="white"/>
<path opacity="0.4" d="M937.573 140.688C937.846 140.688 938.068 140.467 938.068 140.193C938.068 139.92 937.846 139.699 937.573 139.699C937.3 139.699 937.078 139.92 937.078 140.193C937.078 140.467 937.3 140.688 937.573 140.688Z" fill="white"/>
<path d="M1217.62 60.5318C1217.9 60.5318 1218.12 60.3103 1218.12 60.037C1218.12 59.7638 1217.9 59.5422 1217.62 59.5422C1217.35 59.5422 1217.13 59.7638 1217.13 60.037C1217.13 60.3103 1217.35 60.5318 1217.62 60.5318Z" fill="white"/>
<path d="M450.698 372.251C450.971 372.251 451.193 372.03 451.193 371.756C451.193 371.483 450.971 371.261 450.698 371.261C450.425 371.261 450.203 371.483 450.203 371.756C450.203 372.03 450.425 372.251 450.698 372.251Z" fill="white"/>
<path opacity="0.4" d="M817.833 190.167C818.106 190.167 818.327 189.946 818.327 189.673C818.327 189.399 818.106 189.178 817.833 189.178C817.559 189.178 817.338 189.399 817.338 189.673C817.338 189.946 817.559 190.167 817.833 190.167Z" fill="white"/>
<path d="M1097.89 110.011C1098.16 110.011 1098.38 109.79 1098.38 109.516C1098.38 109.243 1098.16 109.021 1097.89 109.021C1097.61 109.021 1097.39 109.243 1097.39 109.516C1097.39 109.79 1097.61 110.011 1097.89 110.011Z" fill="white"/>
<path opacity="0.5" d="M330.958 421.73C331.231 421.73 331.452 421.509 331.452 421.236C331.452 420.962 331.231 420.741 330.958 420.741C330.684 420.741 330.463 420.962 330.463 421.236C330.463 421.509 330.684 421.73 330.958 421.73Z" fill="white"/>
<path opacity="0.5" d="M698.092 259.438C698.366 259.438 698.587 259.217 698.587 258.944C698.587 258.67 698.366 258.449 698.092 258.449C697.819 258.449 697.598 258.67 697.598 258.944C697.598 259.217 697.819 259.438 698.092 259.438Z" fill="white"/>
<path d="M978.145 179.282C978.418 179.282 978.64 179.06 978.64 178.787C978.64 178.514 978.418 178.292 978.145 178.292C977.872 178.292 977.65 178.514 977.65 178.787C977.65 179.06 977.872 179.282 978.145 179.282Z" fill="white"/>
<path opacity="0.4" d="M211.217 491.001C211.491 491.001 211.712 490.78 211.712 490.507C211.712 490.233 211.491 490.012 211.217 490.012C210.944 490.012 210.723 490.233 210.723 490.507C210.723 490.78 210.944 491.001 211.217 491.001Z" fill="white"/>
<path d="M568.458 368.293C568.731 368.293 568.952 368.071 568.952 367.798C568.952 367.525 568.731 367.303 568.458 367.303C568.184 367.303 567.963 367.525 567.963 367.798C567.963 368.071 568.184 368.293 568.458 368.293Z" fill="white"/>
<path d="M848.51 288.136C848.784 288.136 849.005 287.915 849.005 287.642C849.005 287.368 848.784 287.147 848.51 287.147C848.237 287.147 848.016 287.368 848.016 287.642C848.016 287.915 848.237 288.136 848.51 288.136Z" fill="white"/>
<path d="M81.5827 599.856C81.8559 599.856 82.0775 599.634 82.0775 599.361C82.0775 599.087 81.8559 598.866 81.5827 598.866C81.3094 598.866 81.0879 599.087 81.0879 599.361C81.0879 599.634 81.3094 599.856 81.5827 599.856Z" fill="white"/>
<path d="M488.301 477.147C488.575 477.147 488.796 476.926 488.796 476.652C488.796 476.379 488.575 476.157 488.301 476.157C488.028 476.157 487.807 476.379 487.807 476.652C487.807 476.926 488.028 477.147 488.301 477.147Z" fill="white"/>
<path d="M768.354 396.991C768.627 396.991 768.849 396.769 768.849 396.496C768.849 396.223 768.627 396.001 768.354 396.001C768.081 396.001 767.859 396.223 767.859 396.496C767.859 396.769 768.081 396.991 768.354 396.991Z" fill="white"/>
<path d="M1.42643 708.71C1.6997 708.71 1.92122 708.489 1.92122 708.215C1.92122 707.942 1.6997 707.72 1.42643 707.72C1.15317 707.72 0.931641 707.942 0.931641 708.215C0.931641 708.489 1.15317 708.71 1.42643 708.71Z" fill="white"/>
</g>
</svg>
