<svg width="22" height="21" viewBox="0 0 22 21" fill="none" xmlns="http://www.w3.org/2000/svg">
<g clip-path="url(#clip0_19_21644)">
<path d="M20.1712 10.3388C20.2627 5.09291 16.0843 0.766032 10.8384 0.674465C5.59249 0.582897 1.26561 4.76131 1.17405 10.0072C1.08248 15.2531 5.2609 19.58 10.5068 19.6716C15.7527 19.7631 20.0796 15.5847 20.1712 10.3388Z" fill="url(#paint0_linear_19_21644)"/>
<path d="M20.1712 10.3388C20.2627 5.09291 16.0843 0.766032 10.8384 0.674465C5.59249 0.582897 1.26561 4.76131 1.17405 10.0072C1.08248 15.2531 5.2609 19.58 10.5068 19.6716C15.7527 19.7631 20.0796 15.5847 20.1712 10.3388Z" stroke="url(#paint1_radial_19_21644)"/>
<path fill-rule="evenodd" clip-rule="evenodd" d="M4.67188 6.17285C4.67188 5.06828 5.5673 4.17285 6.67188 4.17285H14.6719C15.7764 4.17285 16.6719 5.06828 16.6719 6.17285V14.1728C16.6719 15.2774 15.7764 16.1728 14.6719 16.1728H6.67188C5.5673 16.1728 4.67188 15.2774 4.67188 14.1728V6.17285ZM6.0052 6.17285C6.0052 5.80466 6.30368 5.50618 6.67188 5.50618H7.33854V6.83952C7.33854 7.20771 7.04007 7.50618 6.67188 7.50618C6.30368 7.50618 6.0052 7.20771 6.0052 6.83952V6.17285ZM9.33855 7.50618C8.97036 7.50618 8.67187 7.20771 8.67187 6.83952V5.50618H10.0052V6.83952C10.0052 7.20771 9.70674 7.50618 9.33855 7.50618ZM12.0052 7.50618C11.637 7.50618 11.3385 7.20771 11.3385 6.83952V5.50618H12.6719V6.83952C12.6719 7.20771 12.3734 7.50618 12.0052 7.50618ZM14.6719 7.50618C14.3037 7.50618 14.0052 7.20771 14.0052 6.83952V5.50618H14.6719C15.04 5.50618 15.3385 5.80466 15.3385 6.17285V6.83952C15.3385 7.20771 15.04 7.50618 14.6719 7.50618ZM9.33855 12.8395C9.33855 12.4713 9.63703 12.1729 10.0052 12.1729H11.3385C11.7067 12.1729 12.0052 12.4713 12.0052 12.8395V14.8395H13.3385V12.8395C13.3385 11.7349 12.4431 10.8395 11.3385 10.8395H10.0052C8.90065 10.8395 8.00521 11.7349 8.00521 12.8395V14.8395H9.33855V12.8395Z" fill="white"/>
</g>
<defs>
<linearGradient id="paint0_linear_19_21644" x1="10.8561" y1="0.166046" x2="10.507" y2="20.163" gradientUnits="userSpaceOnUse">
<stop stop-color="#5E6AD2"/>
<stop offset="1" stop-color="#5790FF"/>
</linearGradient>
<radialGradient id="paint1_radial_19_21644" cx="0" cy="0" r="1" gradientUnits="userSpaceOnUse" gradientTransform="translate(10.0069 0.151223) rotate(88.5684) scale(20.018 21.9333)">
<stop stop-color="white" stop-opacity="0.48"/>
<stop offset="1" stop-color="white" stop-opacity="0.04"/>
</radialGradient>
<clipPath id="clip0_19_21644">
<rect width="21" height="21" fill="white" transform="translate(0.5)"/>
</clipPath>
</defs>
</svg>
