<svg width="22" height="21" viewBox="0 0 22 21" fill="none" xmlns="http://www.w3.org/2000/svg">
<g clip-path="url(#clip0_19_21554)">
<path d="M20.1712 10.3388C20.2627 5.09291 16.0843 0.766032 10.8384 0.674465C5.59249 0.582897 1.26561 4.76131 1.17405 10.0072C1.08248 15.2531 5.2609 19.58 10.5068 19.6716C15.7527 19.7631 20.0796 15.5847 20.1712 10.3388Z" fill="url(#paint0_linear_19_21554)"/>
<path d="M20.1712 10.3388C20.2627 5.09291 16.0843 0.766032 10.8384 0.674465C5.59249 0.582897 1.26561 4.76131 1.17405 10.0072C1.08248 15.2531 5.2609 19.58 10.5068 19.6716C15.7527 19.7631 20.0796 15.5847 20.1712 10.3388Z" stroke="url(#paint1_radial_19_21554)"/>
<path d="M11.0616 4.75425C10.9135 4.83504 10.7835 4.91616 10.6725 4.99164C10.5615 4.91616 10.4315 4.83504 10.2834 4.75425C9.75151 4.46412 8.97552 4.17285 8.00586 4.17285C6.99365 4.17285 5.98251 4.57857 5.22783 5.38356C4.46996 6.19195 4.00586 7.36347 4.00586 8.83952C4.00586 11.0694 5.58771 12.9077 7.06044 14.1243C7.81476 14.7475 8.58377 15.2438 9.20033 15.5864C9.50847 15.7575 9.78502 15.8939 10.0085 15.9897C10.1196 16.0373 10.2251 16.0782 10.3195 16.1084C10.3914 16.1314 10.5286 16.1729 10.6725 16.1729C10.8164 16.1729 10.9536 16.1314 11.0255 16.1084C11.1199 16.0782 11.2254 16.0373 11.3365 15.9897C11.56 15.8939 11.8366 15.7575 12.1447 15.5864C12.7613 15.2438 13.5303 14.7475 14.2846 14.1243C15.7573 12.9077 17.3392 11.0694 17.3392 8.83952C17.3392 7.36347 16.8751 6.19195 16.1172 5.38356C15.3625 4.57857 14.3514 4.17285 13.3392 4.17285C12.3695 4.17285 11.5935 4.46412 11.0616 4.75425Z" fill="white"/>
</g>
<defs>
<linearGradient id="paint0_linear_19_21554" x1="10.8561" y1="0.166046" x2="10.507" y2="20.163" gradientUnits="userSpaceOnUse">
<stop stop-color="#10834B"/>
<stop offset="1" stop-color="#09F785"/>
</linearGradient>
<radialGradient id="paint1_radial_19_21554" cx="0" cy="0" r="1" gradientUnits="userSpaceOnUse" gradientTransform="translate(10.0069 0.151223) rotate(88.5684) scale(20.018 21.9333)">
<stop stop-color="white" stop-opacity="0.48"/>
<stop offset="1" stop-color="white" stop-opacity="0.04"/>
</radialGradient>
<clipPath id="clip0_19_21554">
<rect width="21" height="21" fill="white" transform="translate(0.5)"/>
</clipPath>
</defs>
</svg>
